<svg width="176" height="176" viewBox="0 0 176 176" fill="none" xmlns="http://www.w3.org/2000/svg">
<path d="M25.6935 56.6586C32.6538 43.0037 43.9252 32.0272 57.7597 25.4312C71.5943 18.8353 87.2186 16.9886 102.21 20.1776C117.201 23.3666 130.72 31.413 140.672 43.069C150.624 54.7249 156.452 69.339 157.251 84.6446C158.051 99.9501 153.778 115.092 145.095 127.721C136.412 140.351 123.804 149.762 109.227 154.496C94.6498 159.23 78.9181 159.021 64.4716 153.903C50.0251 148.784 37.6712 139.042 29.3259 126.187L32.9225 123.852C40.7538 135.916 52.3469 145.058 65.9036 149.861C79.4604 154.664 94.2232 154.86 107.903 150.418C121.582 145.975 133.413 137.144 141.561 125.292C149.71 113.44 153.72 99.2312 152.969 84.8683C152.219 70.5054 146.75 56.7914 137.411 45.8533C128.072 34.9153 115.385 27.3644 101.317 24.3718C87.2497 21.3792 72.5876 23.1122 59.6052 29.3019C46.6227 35.4915 36.0455 45.7921 29.5138 58.6059L25.6935 56.6586Z" fill="#B9E901"/>
<path d="M71 88.5H104M104 88.5L90.6087 75.1087M104 88.5L89.6522 102.848" stroke="#B9E901" stroke-width="4"/>
</svg>
