<svg width="17" height="17" viewBox="0 0 17 17" fill="none" xmlns="http://www.w3.org/2000/svg">
<rect x="0.000244141" y="12.0781" width="4.41176" height="4.31373" rx="2" fill="#D9D9D9"/>
<rect x="0.000244141" y="12.0781" width="4.41176" height="4.31373" rx="2" fill="#D9D9D9"/>
<rect x="0.000244141" y="12.0781" width="4.41176" height="4.31373" rx="2" fill="#D9D9D9"/>
<rect x="0.000244141" y="12.0781" width="4.41176" height="4.31373" rx="2" fill="#D9D9D9"/>
<rect x="0.000244141" y="12.0781" width="4.41176" height="4.31373" rx="2" fill="#D9D9D9"/>
<rect x="0.000244141" y="12.0781" width="4.41176" height="4.31373" rx="2" fill="black"/>
<rect x="6.17651" y="12.0781" width="4.41176" height="4.31373" rx="2" fill="#D9D9D9"/>
<rect x="6.17651" y="12.0781" width="4.41176" height="4.31373" rx="2" fill="#D9D9D9"/>
<rect x="6.17651" y="12.0781" width="4.41176" height="4.31373" rx="2" fill="#D9D9D9"/>
<rect x="6.17651" y="12.0781" width="4.41176" height="4.31373" rx="2" fill="#D9D9D9"/>
<rect x="6.17651" y="12.0781" width="4.41176" height="4.31373" rx="2" fill="#D9D9D9"/>
<rect x="6.17651" y="12.0781" width="4.41176" height="4.31373" rx="2" fill="black"/>
<rect x="12.3528" y="12.0781" width="4.41176" height="4.31373" rx="2" fill="#D9D9D9"/>
<rect x="12.3528" y="12.0781" width="4.41176" height="4.31373" rx="2" fill="#D9D9D9"/>
<rect x="12.3528" y="12.0781" width="4.41176" height="4.31373" rx="2" fill="#D9D9D9"/>
<rect x="12.3528" y="12.0781" width="4.41176" height="4.31373" rx="2" fill="#D9D9D9"/>
<rect x="12.3528" y="12.0781" width="4.41176" height="4.31373" rx="2" fill="#D9D9D9"/>
<rect x="12.3528" y="12.0781" width="4.41176" height="4.31373" rx="2" fill="black"/>
<rect x="0.000244141" y="6.03906" width="4.41176" height="4.31373" rx="2" fill="#D9D9D9"/>
<rect x="0.000244141" y="6.03906" width="4.41176" height="4.31373" rx="2" fill="#D9D9D9"/>
<rect x="0.000244141" y="6.03906" width="4.41176" height="4.31373" rx="2" fill="#D9D9D9"/>
<rect x="0.000244141" y="6.03906" width="4.41176" height="4.31373" rx="2" fill="#D9D9D9"/>
<rect x="0.000244141" y="6.03906" width="4.41176" height="4.31373" rx="2" fill="#D9D9D9"/>
<rect x="0.000244141" y="6.03906" width="4.41176" height="4.31373" rx="2" fill="black"/>
<rect x="6.17651" y="6.03906" width="4.41176" height="4.31373" rx="2" fill="#D9D9D9"/>
<rect x="6.17651" y="6.03906" width="4.41176" height="4.31373" rx="2" fill="#D9D9D9"/>
<rect x="6.17651" y="6.03906" width="4.41176" height="4.31373" rx="2" fill="#D9D9D9"/>
<rect x="6.17651" y="6.03906" width="4.41176" height="4.31373" rx="2" fill="#D9D9D9"/>
<rect x="6.17651" y="6.03906" width="4.41176" height="4.31373" rx="2" fill="#D9D9D9"/>
<rect x="6.17651" y="6.03906" width="4.41176" height="4.31373" rx="2" fill="black"/>
<rect x="12.3528" y="6.03906" width="4.41176" height="4.31373" rx="2" fill="#D9D9D9"/>
<rect x="12.3528" y="6.03906" width="4.41176" height="4.31373" rx="2" fill="#D9D9D9"/>
<rect x="12.3528" y="6.03906" width="4.41176" height="4.31373" rx="2" fill="#D9D9D9"/>
<rect x="12.3528" y="6.03906" width="4.41176" height="4.31373" rx="2" fill="#D9D9D9"/>
<rect x="12.3528" y="6.03906" width="4.41176" height="4.31373" rx="2" fill="#D9D9D9"/>
<rect x="12.3528" y="6.03906" width="4.41176" height="4.31373" rx="2" fill="black"/>
<rect x="0.000244141" width="4.41176" height="4.31373" rx="2" fill="#D9D9D9"/>
<rect x="0.000244141" width="4.41176" height="4.31373" rx="2" fill="#D9D9D9"/>
<rect x="0.000244141" width="4.41176" height="4.31373" rx="2" fill="#D9D9D9"/>
<rect x="0.000244141" width="4.41176" height="4.31373" rx="2" fill="#D9D9D9"/>
<rect x="0.000244141" width="4.41176" height="4.31373" rx="2" fill="#D9D9D9"/>
<rect x="0.000244141" width="4.41176" height="4.31373" rx="2" fill="black"/>
<rect x="6.17651" width="4.41176" height="4.31373" rx="2" fill="#D9D9D9"/>
<rect x="6.17651" width="4.41176" height="4.31373" rx="2" fill="#D9D9D9"/>
<rect x="6.17651" width="4.41176" height="4.31373" rx="2" fill="#D9D9D9"/>
<rect x="6.17651" width="4.41176" height="4.31373" rx="2" fill="#D9D9D9"/>
<rect x="6.17651" width="4.41176" height="4.31373" rx="2" fill="#D9D9D9"/>
<rect x="6.17651" width="4.41176" height="4.31373" rx="2" fill="black"/>
<rect x="12.3528" width="4.41176" height="4.31373" rx="2" fill="#D9D9D9"/>
<rect x="12.3528" width="4.41176" height="4.31373" rx="2" fill="#D9D9D9"/>
<rect x="12.3528" width="4.41176" height="4.31373" rx="2" fill="#D9D9D9"/>
<rect x="12.3528" width="4.41176" height="4.31373" rx="2" fill="#D9D9D9"/>
<rect x="12.3528" width="4.41176" height="4.31373" rx="2" fill="#D9D9D9"/>
<rect x="12.3528" width="4.41176" height="4.31373" rx="2" fill="black"/>
</svg>
