<svg width="55" height="23" viewBox="0 0 55 23" fill="none" xmlns="http://www.w3.org/2000/svg">
<g id="&#208;&#155;&#208;&#184;&#209;&#129;&#209;&#130;&#208;&#176;&#208;&#187;&#208;&#186;&#208;&#176;">
<path id="Vector" opacity="0.2" d="M53.6612 0H38.5567C38.3371 0 38.1592 0.177962 38.1592 0.397489V15.5021C38.1592 15.7216 38.3371 15.8995 38.5567 15.8995H53.6612C53.8808 15.8995 54.0587 15.7216 54.0587 15.5021V0.397489C54.0587 0.177962 53.8808 0 53.6612 0Z" fill="white"/>
<path id="Vector_2" opacity="0.2" d="M15.5023 0H0.397733C0.178206 0 0.000244141 0.177962 0.000244141 0.397489V15.5021C0.000244141 15.7216 0.178206 15.8995 0.397733 15.8995H15.5023C15.7218 15.8995 15.8998 15.7216 15.8998 15.5021V0.397489C15.8998 0.177962 15.7218 0 15.5023 0Z" fill="white"/>
<path id="Vector_3" opacity="0.3" d="M34.5816 0H19.4771C19.2576 0 19.0796 0.177962 19.0796 0.397489V15.5021C19.0796 15.7216 19.2576 15.8995 19.4771 15.8995H34.5816C34.8012 15.8995 34.9791 15.7216 34.9791 15.5021V0.397489C34.9791 0.177962 34.8012 0 34.5816 0Z" fill="white"/>
<path id="Vector_4" d="M25.3566 22.7125C25.3566 22.7125 22.0892 16.8933 20.7139 14.3732C18.8854 11.0184 18.5833 9.60332 19.8474 8.90374C20.6344 8.46651 21.7235 8.64935 22.3913 9.81002L23.9495 12.2903V2.56778C23.9495 2.56778 23.8541 0 25.6825 0C27.6302 0 27.4633 2.56778 27.4633 2.56778V7.28994C27.4633 7.28994 28.4888 6.55061 29.6892 6.8845C30.3013 7.05145 31.0168 7.34559 31.3984 8.31546C31.3984 8.31546 33.839 7.13094 35.0553 9.65102C35.0553 9.65102 37.8695 9.09454 37.8695 12.0121C37.8695 14.9297 34.3557 22.7125 34.3557 22.7125H25.3566Z" fill="white"/>
</g>
</svg>
