<svg width="200" height="200" viewBox="0 0 200 200" fill="none" xmlns="http://www.w3.org/2000/svg">
<circle cx="100" cy="100.001" r="70.9302" fill="#B9E901"/>
<circle cx="100" cy="100" r="99.5" stroke="#B9E901"/>
<path d="M84.5527 119.112C84.5527 120.719 85.2387 121.994 86.6108 122.939C87.3677 123.364 88.172 123.577 89.0236 123.577C89.686 123.577 90.3483 123.411 91.0107 123.081L126.849 105.223C127.559 104.845 128.15 104.302 128.623 103.593C129.096 102.884 129.309 102.081 129.262 101.184C129.214 100.286 129.002 99.5065 128.623 98.8451C128.245 98.1837 127.653 97.6404 126.849 97.2152L91.0107 79.3574C90.3483 79.0267 89.686 78.8613 89.0236 78.8613C88.2193 78.8613 87.4151 79.0739 86.6108 79.4991C85.2387 80.3967 84.5527 81.6723 84.5527 83.3258V119.112Z" fill="white"/>
</svg>
