<svg width="20" height="20" viewBox="0 0 20 20" fill="none" xmlns="http://www.w3.org/2000/svg">
<path d="M12.9635 12.1231L12.5839 12.5227C12.5839 12.5227 11.6817 13.4725 9.21925 10.8799C6.75676 8.28737 7.65891 7.33756 7.65891 7.33756L7.89793 7.08593C8.48675 6.46603 8.54225 5.47081 8.02853 4.74425L6.97771 3.25801C6.3419 2.35875 5.1133 2.23996 4.38454 3.0072L3.07654 4.38428C2.71519 4.76472 2.47304 5.25787 2.50241 5.80495C2.57753 7.20455 3.17559 10.2158 6.5128 13.7293C10.0517 17.4552 13.3723 17.6032 14.7302 17.4692C15.1597 17.4268 15.5332 17.1952 15.8342 16.8783L17.0181 15.632C17.8172 14.7907 17.5918 13.3485 16.5694 12.76L14.9773 11.8436C14.306 11.4572 13.4882 11.5707 12.9635 12.1231Z" fill="white"/>
<path d="M11.0494 1.56685C11.1046 1.22611 11.4267 0.994969 11.7674 1.05013C11.7885 1.05417 11.8564 1.06685 11.8919 1.07477C11.9631 1.09061 12.0622 1.11499 12.1859 1.15101C12.4332 1.22304 12.7787 1.34172 13.1934 1.53183C14.0237 1.91246 15.1285 2.57829 16.275 3.72479C17.4215 4.87129 18.0873 5.97614 18.4679 6.80637C18.6581 7.22105 18.7767 7.56655 18.8487 7.81387C18.8847 7.93754 18.9092 8.03674 18.925 8.10784C18.9329 8.14339 18.9387 8.17194 18.9427 8.19304L18.9476 8.21904C19.0027 8.55974 18.7737 8.89524 18.4329 8.95041C18.0932 9.00541 17.7731 8.77533 17.7166 8.43624C17.7148 8.42708 17.71 8.40266 17.7049 8.37958C17.6946 8.33341 17.6768 8.26023 17.6487 8.16343C17.5922 7.96982 17.4943 7.68204 17.3317 7.32731C17.0068 6.61872 16.4227 5.64024 15.3911 4.60868C14.3596 3.57713 13.3811 2.99297 12.6725 2.66811C12.3177 2.50548 12.03 2.40754 11.8363 2.35114C11.7396 2.32294 11.6179 2.29502 11.5717 2.28474C11.2326 2.22822 10.9944 1.90662 11.0494 1.56685Z" fill="white"/>
<path fill-rule="evenodd" clip-rule="evenodd" d="M11.2381 4.44077C11.3329 4.10887 11.6788 3.91669 12.0107 4.01151L11.8391 4.61247C12.0107 4.01151 12.0107 4.01151 12.0107 4.01151L12.012 4.01186L12.0132 4.01223L12.016 4.01304L12.0225 4.01497L12.039 4.0201C12.0515 4.02412 12.0672 4.02935 12.0859 4.036C12.1233 4.04928 12.1728 4.06816 12.2335 4.09416C12.3549 4.1462 12.5207 4.22655 12.7246 4.34714C13.1324 4.58854 13.6892 4.98952 14.3434 5.64366C14.9976 6.29781 15.3985 6.85463 15.6399 7.26252C15.7605 7.46628 15.8408 7.63216 15.8929 7.75357C15.9189 7.81424 15.9378 7.8637 15.9511 7.90113C15.9577 7.91984 15.9629 7.93553 15.967 7.9481L15.9721 7.96459L15.974 7.97105L15.9748 7.97382L15.9751 7.9751C15.9751 7.9751 15.9756 7.9763 15.3746 8.148L15.9756 7.9763C16.0704 8.3082 15.8781 8.6541 15.5463 8.74894C15.2172 8.84294 14.8743 8.65485 14.7761 8.32813L14.773 8.31915C14.7686 8.30662 14.7594 8.28197 14.744 8.24597C14.7131 8.17402 14.6572 8.05633 14.5642 7.89917C14.3784 7.58522 14.0428 7.11085 13.4595 6.52755C12.8762 5.94425 12.4018 5.60867 12.0879 5.42286C11.9307 5.32985 11.8131 5.27393 11.7411 5.2431C11.7051 5.22767 11.6804 5.21847 11.6679 5.21403L11.6589 5.21095C11.3322 5.11272 11.1441 4.76985 11.2381 4.44077Z" fill="white"/>
</svg>
