<svg width="16" height="17" viewBox="0 0 16 17" fill="none" xmlns="http://www.w3.org/2000/svg">
<path d="M15.5477 11.7541L13.3149 9.52126C12.5174 8.72381 11.1618 9.04282 10.8428 10.0795C10.6036 10.7972 9.80612 11.1959 9.08841 11.0364C7.49352 10.6377 5.34042 8.56432 4.9417 6.88969C4.70246 6.17195 5.18093 5.37451 5.89863 5.13531C6.93531 4.81633 7.25429 3.46067 6.45684 2.66323L4.224 0.430378C3.58604 -0.127834 2.6291 -0.127834 2.07089 0.430378L0.555746 1.94552C-0.959401 3.54042 0.715235 7.76688 4.46323 11.5149C8.21122 15.2629 12.4377 17.0173 14.0326 15.4224L15.5477 13.9072C16.106 13.2693 16.106 12.3123 15.5477 11.7541Z" fill="#BFE206"/>
</svg>
