<svg width="20" height="20" viewBox="0 0 20 20" fill="none" xmlns="http://www.w3.org/2000/svg">
<path d="M17.7447 2.42813C15.2839 3.44733 4.7323 7.81793 1.8169 9.00913C-0.138303 9.77213 1.0063 10.4875 1.0063 10.4875C1.0063 10.4875 2.6753 11.0597 4.1061 11.4889C5.5367 11.9181 6.2997 11.4413 6.2997 11.4413L13.0237 6.91093C15.4081 5.28953 14.8359 6.62473 14.2635 7.19713C13.0237 8.43713 10.9731 10.3921 9.2563 11.9659C8.4933 12.6335 8.8747 13.2057 9.2087 13.4919C10.4485 14.5411 13.8345 16.6871 14.0251 16.8301C15.0325 17.5433 17.0141 18.5699 17.3155 16.4009L18.5077 8.91393C18.8893 6.38653 19.2707 4.04973 19.3183 3.38213C19.4615 1.76053 17.7447 2.42813 17.7447 2.42813Z" fill="white"/>
</svg>
